# Blender v2.78 (sub 0) OBJ File: '5.blend'
# www.blender.org
mtllib Oven_01.mtl
o Oven_01_Cube.041
v -3.587374 7.894733 -1.310390
v -3.218684 7.894733 -0.420294
v -2.328588 7.894733 -0.051605
v -1.438491 7.894733 -0.420294
v -1.069801 7.894733 -1.310391
v -1.438491 7.894733 -2.200487
v -2.328588 7.894733 -2.569177
v -3.218684 7.894733 -2.200487
v -3.587374 8.189556 -1.310391
v -3.218684 8.189556 -0.420294
v -2.328588 8.189556 -0.051605
v -1.438491 8.189556 -0.420294
v -1.069801 8.189556 -1.310391
v -1.438491 8.189556 -2.200487
v -2.328588 8.189556 -2.569177
v -3.218684 8.189556 -2.200487
v -2.328588 8.189556 -1.310391
v 1.690448 7.859717 -2.867320
v 2.791363 7.859717 -2.411306
v 3.247377 7.859717 -1.310391
v 2.791363 7.859717 -0.209476
v 1.690448 7.859717 0.246538
v 0.589533 7.859717 -0.209476
v 0.133519 7.859717 -1.310391
v 0.589533 7.859717 -2.411306
v 0.133519 8.189556 -1.310391
v 0.589533 8.189556 -0.209476
v 1.690448 8.189556 0.246538
v 2.791363 8.189556 -0.209476
v 3.247377 8.189556 -1.310391
v 2.791363 8.189556 -2.411306
v 1.690448 8.189556 -2.867320
v 0.589533 8.189556 -2.411306
v 1.690448 8.189556 -1.310391
v 3.287469 7.894733 2.589267
v 2.918780 7.894733 1.699171
v 2.028684 7.894733 1.330481
v 1.138587 7.894733 1.699171
v 0.769898 7.894733 2.589267
v 1.138588 7.894733 3.479364
v 2.028684 7.894733 3.848053
v 2.918780 7.894733 3.479363
v 3.287469 8.189556 2.589267
v 2.918780 8.189556 1.699171
v 2.028684 8.189556 1.330481
v 1.138587 8.189556 1.699171
v 0.769898 8.189556 2.589267
v 1.138588 8.189556 3.479364
v 2.028684 8.189556 3.848053
v 2.918780 8.189556 3.479363
v 2.028684 8.189556 2.589267
v -1.990352 7.859717 4.146197
v -3.091267 7.859717 3.690183
v -3.547281 7.859717 2.589268
v -3.091267 7.859717 1.488353
v -1.990352 7.859717 1.032338
v -0.889437 7.859717 1.488352
v -0.433423 7.859717 2.589267
v -0.889437 7.859717 3.690182
v -0.433423 8.189556 2.589267
v -0.889437 8.189556 1.488352
v -1.990352 8.189556 1.032338
v -3.091267 8.189556 1.488353
v -3.547281 8.189556 2.589268
v -3.091267 8.189556 3.690183
v -1.990352 8.189556 4.146197
v -0.889437 8.189556 3.690182
v -1.990352 8.189556 2.589267
v 4.048085 -0.024463 4.048084
v 4.048085 7.036098 4.048084
v -4.048084 -0.024463 4.048085
v -4.048084 7.036098 4.048085
v 4.048084 -0.024463 -4.048085
v 4.048084 7.036098 -4.048085
v -4.048085 -0.024463 -4.048084
v -4.048085 7.036098 -4.048084
v -3.140494 0.767034 4.048085
v 3.140494 0.767034 4.048084
v 3.140494 6.244601 4.048084
v -3.140494 6.244601 4.048085
v 4.048085 -0.024463 4.052628
v 4.048085 7.036098 4.052628
v -4.048084 -0.024463 4.052628
v -4.048084 7.036098 4.052628
v -3.140494 0.767034 4.052628
v 3.140494 0.767034 4.052628
v 3.140494 6.244601 4.052628
v -3.140494 6.244601 4.052628
v -4.048084 -0.024463 4.696228
v 4.048085 -0.024463 4.696228
v 4.048085 7.036098 4.696228
v -4.048084 7.036098 4.696228
v -3.140494 0.767034 4.696228
v 3.140494 0.767034 4.696228
v 3.140494 6.244601 4.696228
v -3.140494 6.244601 4.696228
v 4.048085 8.102931 4.048084
v -4.048084 8.102931 4.048085
v -4.048085 8.102931 -4.048084
v 4.048084 8.102931 -4.048085
v -3.140494 0.767034 4.539624
v 3.140494 0.767034 4.539624
v 3.140494 6.244601 4.539624
v -3.140494 6.244601 4.539624
v -4.048084 -0.024463 -3.387769
v -4.048084 7.036098 -3.387769
v 4.048084 -0.024463 -3.387769
v 4.048084 7.036098 -3.387769
v -4.048084 8.102931 -3.387769
v 4.048084 8.102931 -3.387769
v -4.048084 9.999173 -3.387769
v -4.048085 9.999173 -4.048084
v 4.048084 9.999173 -4.048085
v 4.048084 9.999173 -3.387769
v 4.048085 7.036098 4.714839
v -4.048084 7.036098 4.714839
v 4.048085 8.102931 4.714839
v -4.048084 8.102931 4.714839
v -3.140494 0.767034 -3.376787
v 3.140494 0.767034 -3.376787
v 3.140494 6.244601 -3.376787
v -3.140494 6.244601 -3.376787
v -3.140494 2.412099 3.468723
v 3.140494 2.412099 3.468723
v -3.140494 2.412099 -3.586244
v 3.140494 2.412099 -3.586244
v -3.140494 2.641721 3.468723
v 3.140494 2.641721 3.468723
v -3.140494 2.641721 -3.586244
v 3.140494 2.641721 -3.586244
v -3.140494 3.990259 3.468723
v 3.140494 3.990259 3.468723
v -3.140494 3.990259 -3.586244
v 3.140494 3.990259 -3.586244
v -3.140494 4.219881 3.468723
v 3.140494 4.219881 3.468723
v -3.140494 4.219881 -3.586244
v 3.140494 4.219881 -3.586244
v -3.430018 7.561937 4.795477
v -3.305639 7.862215 4.795477
v -3.005361 7.986594 4.795477
v -2.705083 7.862215 4.795477
v -2.580705 7.561937 4.795477
v -2.705084 7.261660 4.795477
v -3.005361 7.137281 4.795477
v -3.305639 7.261660 4.795477
v -3.251448 7.561937 4.895111
v -3.179371 7.735948 4.895111
v -3.005361 7.808025 4.895111
v -2.831352 7.735948 4.895111
v -2.759274 7.561937 4.895111
v -2.831352 7.387928 4.895111
v -3.005361 7.315851 4.895111
v -3.179371 7.387928 4.895111
v -3.189576 7.561937 5.097398
v -3.135621 7.692196 5.097398
v -3.005361 7.746152 5.097397
v -2.875102 7.692196 5.097397
v -2.821146 7.561937 5.097397
v -2.875102 7.431679 5.097397
v -3.005361 7.377724 5.097397
v -3.135621 7.431679 5.097398
v -3.005361 7.561937 5.097397
v -3.005361 7.137281 4.657484
v -2.705084 7.261660 4.657484
v -2.580705 7.561937 4.657484
v -2.705083 7.862215 4.657484
v -3.005361 7.986594 4.657484
v -3.305639 7.862215 4.657484
v -3.430018 7.561937 4.657484
v -3.305639 7.261660 4.657484
v -2.230642 7.561937 4.795477
v -2.106263 7.862215 4.795477
v -1.805985 7.986594 4.795477
v -1.505707 7.862215 4.795477
v -1.381328 7.561937 4.795477
v -1.505707 7.261660 4.795477
v -1.805985 7.137281 4.795477
v -2.106263 7.261660 4.795477
v -2.052072 7.561937 4.895111
v -1.979995 7.735948 4.895111
v -1.805985 7.808025 4.895111
v -1.631975 7.735948 4.895111
v -1.559898 7.561937 4.895111
v -1.631975 7.387928 4.895111
v -1.805985 7.315851 4.895111
v -1.979995 7.387928 4.895111
v -1.990200 7.561937 5.097397
v -1.936245 7.692196 5.097397
v -1.805985 7.746152 5.097397
v -1.675726 7.692196 5.097397
v -1.621771 7.561937 5.097397
v -1.675726 7.431679 5.097397
v -1.805985 7.377724 5.097397
v -1.936245 7.431679 5.097397
v -1.805985 7.561937 5.097397
v -1.805985 7.137281 4.657484
v -1.505707 7.261660 4.657484
v -1.381328 7.561937 4.657484
v -1.505707 7.862215 4.657484
v -1.805985 7.986594 4.657484
v -2.106263 7.862215 4.657484
v -2.230642 7.561937 4.657484
v -2.106263 7.261660 4.657484
v -0.992886 7.561937 4.795477
v -0.868506 7.862215 4.795477
v -0.568229 7.986594 4.795477
v -0.267951 7.862215 4.795477
v -0.143572 7.561937 4.795477
v -0.267951 7.261660 4.795477
v -0.568229 7.137281 4.795477
v -0.868506 7.261660 4.795477
v -0.814315 7.561937 4.895111
v -0.742238 7.735948 4.895111
v -0.568229 7.808025 4.895111
v -0.394219 7.735948 4.895111
v -0.322142 7.561937 4.895111
v -0.394219 7.387928 4.895111
v -0.568229 7.315851 4.895111
v -0.742238 7.387928 4.895111
v -0.752443 7.561937 5.097397
v -0.698488 7.692196 5.097397
v -0.568229 7.746152 5.097397
v -0.437969 7.692196 5.097397
v -0.384014 7.561937 5.097397
v -0.437969 7.431679 5.097397
v -0.568229 7.377724 5.097397
v -0.698488 7.431679 5.097397
v -0.568229 7.561937 5.097397
v -0.568229 7.137281 4.657483
v -0.267951 7.261660 4.657484
v -0.143572 7.561937 4.657484
v -0.267951 7.862215 4.657483
v -0.568229 7.986594 4.657483
v -0.868506 7.862215 4.657483
v -0.992886 7.561937 4.657484
v -0.868506 7.261660 4.657483
v 0.216086 7.561937 4.795477
v 0.340465 7.862215 4.795477
v 0.640742 7.986594 4.795477
v 0.941020 7.862215 4.795477
v 1.065400 7.561937 4.795477
v 0.941020 7.261660 4.795477
v 0.640742 7.137281 4.795477
v 0.340465 7.261660 4.795477
v 0.394656 7.561937 4.895111
v 0.466733 7.735948 4.895111
v 0.640742 7.808025 4.895111
v 0.814752 7.735948 4.895111
v 0.886830 7.561937 4.895111
v 0.814752 7.387928 4.895111
v 0.640742 7.315851 4.895111
v 0.466733 7.387928 4.895111
v 0.456528 7.561937 5.097397
v 0.510483 7.692196 5.097397
v 0.640742 7.746152 5.097397
v 0.771002 7.692196 5.097397
v 0.824957 7.561937 5.097397
v 0.771002 7.431679 5.097397
v 0.640742 7.377724 5.097397
v 0.510483 7.431679 5.097397
v 0.640742 7.561937 5.097397
v 0.640742 7.137281 4.657484
v 0.941020 7.261660 4.657484
v 1.065400 7.561937 4.657484
v 0.941020 7.862215 4.657484
v 0.640742 7.986594 4.657484
v 0.340465 7.862215 4.657484
v 0.216086 7.561937 4.657484
v 0.340465 7.261660 4.657484
v 1.425057 7.561937 4.795477
v 1.549436 7.862215 4.795477
v 1.849714 7.986594 4.795477
v 2.149992 7.862215 4.795477
v 2.274370 7.561937 4.795477
v 2.149991 7.261660 4.795477
v 1.849714 7.137281 4.795477
v 1.549436 7.261660 4.795477
v 1.603627 7.561937 4.895111
v 1.675704 7.735948 4.895111
v 1.849714 7.808025 4.895111
v 2.023723 7.735948 4.895111
v 2.095800 7.561937 4.895111
v 2.023723 7.387928 4.895111
v 1.849714 7.315851 4.895111
v 1.675704 7.387928 4.895111
v 1.665499 7.561937 5.097397
v 1.719454 7.692196 5.097397
v 1.849714 7.746152 5.097397
v 1.979973 7.692196 5.097397
v 2.033928 7.561937 5.097397
v 1.979973 7.431679 5.097397
v 1.849714 7.377724 5.097397
v 1.719454 7.431679 5.097397
v 1.849714 7.561937 5.097397
v 1.849714 7.137281 4.657484
v 2.149992 7.261660 4.657484
v 2.274371 7.561937 4.657484
v 2.149992 7.862215 4.657484
v 1.849714 7.986594 4.657484
v 1.549436 7.862215 4.657484
v 1.425057 7.561937 4.657484
v 1.549436 7.261660 4.657484
v 2.662813 7.561937 4.795477
v 2.787192 7.862215 4.795477
v 3.087470 7.986594 4.795477
v 3.387747 7.862215 4.795477
v 3.512127 7.561937 4.795477
v 3.387747 7.261660 4.795477
v 3.087470 7.137281 4.795477
v 2.787192 7.261660 4.795477
v 2.841383 7.561937 4.895111
v 2.913460 7.735948 4.895111
v 3.087470 7.808025 4.895111
v 3.261479 7.735948 4.895111
v 3.333557 7.561937 4.895111
v 3.261479 7.387928 4.895111
v 3.087470 7.315851 4.895111
v 2.913460 7.387928 4.895111
v 2.903255 7.561937 5.097397
v 2.957211 7.692196 5.097397
v 3.087470 7.746152 5.097397
v 3.217730 7.692196 5.097397
v 3.271685 7.561937 5.097397
v 3.217730 7.431679 5.097397
v 3.087470 7.377724 5.097397
v 2.957211 7.431679 5.097397
v 3.087470 7.561937 5.097397
v 3.087470 7.137281 4.657484
v 3.387748 7.261660 4.657484
v 3.512127 7.561937 4.657484
v 3.387748 7.862215 4.657484
v 3.087470 7.986594 4.657484
v 2.787192 7.862215 4.657484
v 2.662813 7.561937 4.657484
v 2.787192 7.261660 4.657484
vn 0.0000 0.0000 1.0000
vn -1.0000 0.0000 0.0000
vn -0.0000 0.0000 -1.0000
vn 1.0000 0.0000 -0.0000
vn 0.0000 -1.0000 -0.0000
vn 0.0000 1.0000 0.0000
vn -0.3827 0.0000 0.9239
vn -0.3827 0.0000 -0.9239
vn 0.9239 0.0000 -0.3827
vn 0.3827 0.0000 0.9239
vn -0.9239 0.0000 0.3827
vn -0.9239 0.0000 -0.3827
vn 0.3827 0.0000 -0.9239
vn 0.9239 0.0000 0.3827
vn -0.4776 0.1978 0.8560
vn -0.4776 -0.1978 0.8560
vn 0.1978 -0.4776 0.8560
vn 0.4776 0.1978 0.8560
vn -0.1978 0.4776 0.8560
vn -0.1978 -0.4776 0.8560
vn 0.4776 -0.1978 0.8560
vn 0.1978 0.4776 0.8560
vn 0.8891 0.3683 0.2719
vn -0.3683 0.8891 0.2719
vn -0.3683 -0.8891 0.2719
vn 0.8891 -0.3683 0.2719
vn 0.3683 0.8891 0.2719
vn -0.8891 0.3683 0.2719
vn -0.8891 -0.3683 0.2719
vn 0.3683 -0.8891 0.2719
vn -0.9239 0.3827 0.0000
vn -0.9239 -0.3827 0.0000
vn 0.3827 -0.9239 0.0000
vn 0.9239 0.3827 0.0000
vn -0.3827 0.9239 0.0000
vn -0.3827 -0.9239 0.0000
vn 0.9239 -0.3827 0.0000
vn 0.3827 0.9239 0.0000
usemtl FFFFFF
s off
f 70//1 72//1 80//1 79//1
f 105//2 106//2 76//2 75//2
f 75//3 76//3 74//3 73//3
f 107//4 108//4 70//4 69//4
f 105//5 75//5 73//5 107//5
f 74//3 76//3 99//3 100//3
f 71//1 69//1 78//1 77//1
f 72//1 71//1 77//1 80//1
f 69//1 70//1 79//1 78//1
f 82//3 87//3 88//3 84//3
f 86//3 85//3 88//3 87//3
f 83//3 85//3 86//3 81//3
f 84//3 88//3 85//3 83//3
f 81//3 86//3 87//3 82//3
f 91//1 92//1 96//1 95//1
f 96//4 93//4 101//4 104//4
f 89//1 90//1 94//1 93//1
f 92//1 89//1 93//1 96//1
f 90//1 91//1 95//1 94//1
f 82//6 84//6 92//6 91//6
f 83//5 81//5 90//5 89//5
f 84//2 83//2 89//2 92//2
f 81//4 82//4 91//4 90//4
f 70//4 97//4 117//4 115//4
f 108//4 74//4 100//4 110//4
f 106//2 72//2 98//2 109//2
f 94//2 95//2 103//2 102//2
f 95//5 96//5 104//5 103//5
f 93//6 94//6 102//6 101//6
f 76//2 106//2 109//2 99//2
f 70//4 108//4 110//4 97//4
f 100//3 99//3 112//3 113//3
f 71//5 105//5 107//5 69//5
f 73//4 74//4 108//4 107//4
f 71//2 72//2 106//2 105//2
f 112//6 111//6 114//6 113//6
f 109//1 110//1 114//1 111//1
f 99//2 109//2 111//2 112//2
f 110//4 100//4 113//4 114//4
f 116//1 115//1 117//1 118//1
f 72//5 70//5 115//5 116//5
f 98//2 72//2 116//2 118//2
usemtl 1A1A1A
f 2//7 3//7 11//7 10//7
f 7//8 8//8 16//8 15//8
f 5//9 6//9 14//9 13//9
f 3//10 4//10 12//10 11//10
f 1//11 2//11 10//11 9//11
f 8//12 1//12 9//12 16//12
f 6//13 7//13 15//13 14//13
f 4//14 5//14 13//14 12//14
f 13//6 14//6 17//6
f 11//6 12//6 17//6
f 9//6 10//6 17//6
f 16//6 9//6 17//6
f 14//6 15//6 17//6
f 12//6 13//6 17//6
f 10//6 11//6 17//6
f 15//6 16//6 17//6
f 23//7 22//7 28//7 27//7
f 18//8 25//8 33//8 32//8
f 20//9 19//9 31//9 30//9
f 22//10 21//10 29//10 28//10
f 24//11 23//11 27//11 26//11
f 25//12 24//12 26//12 33//12
f 19//13 18//13 32//13 31//13
f 21//14 20//14 30//14 29//14
f 30//6 31//6 34//6
f 28//6 29//6 34//6
f 26//6 27//6 34//6
f 33//6 26//6 34//6
f 31//6 32//6 34//6
f 29//6 30//6 34//6
f 27//6 28//6 34//6
f 32//6 33//6 34//6
f 36//13 37//13 45//13 44//13
f 41//10 42//10 50//10 49//10
f 39//11 40//11 48//11 47//11
f 37//8 38//8 46//8 45//8
f 35//9 36//9 44//9 43//9
f 42//14 35//14 43//14 50//14
f 40//7 41//7 49//7 48//7
f 38//12 39//12 47//12 46//12
f 47//6 48//6 51//6
f 45//6 46//6 51//6
f 43//6 44//6 51//6
f 50//6 43//6 51//6
f 48//6 49//6 51//6
f 46//6 47//6 51//6
f 44//6 45//6 51//6
f 49//6 50//6 51//6
f 57//13 56//13 62//13 61//13
f 52//10 59//10 67//10 66//10
f 54//11 53//11 65//11 64//11
f 56//8 55//8 63//8 62//8
f 58//9 57//9 61//9 60//9
f 59//14 58//14 60//14 67//14
f 53//7 52//7 66//7 65//7
f 55//12 54//12 64//12 63//12
f 64//6 65//6 68//6
f 62//6 63//6 68//6
f 60//6 61//6 68//6
f 67//6 60//6 68//6
f 65//6 66//6 68//6
f 63//6 64//6 68//6
f 61//6 62//6 68//6
f 66//6 67//6 68//6
f 79//5 80//5 122//5 121//5
f 109//6 98//6 97//6 110//6
f 102//1 103//1 104//1 101//1
f 97//6 98//6 118//6 117//6
f 120//1 121//1 122//1 119//1
f 77//6 78//6 120//6 119//6
f 80//4 77//4 119//4 122//4
f 78//2 79//2 121//2 120//2
f 123//5 125//5 126//5 124//5
f 127//6 128//6 130//6 129//6
f 124//4 126//4 130//4 128//4
f 123//1 124//1 128//1 127//1
f 125//2 123//2 127//2 129//2
f 126//3 125//3 129//3 130//3
f 131//5 133//5 134//5 132//5
f 135//6 136//6 138//6 137//6
f 132//4 134//4 138//4 136//4
f 131//1 132//1 136//1 135//1
f 133//2 131//2 135//2 137//2
f 134//3 133//3 137//3 138//3
f 139//15 147//15 148//15 140//15
f 146//16 154//16 147//16 139//16
f 144//17 152//17 153//17 145//17
f 142//18 150//18 151//18 143//18
f 140//19 148//19 149//19 141//19
f 145//20 153//20 154//20 146//20
f 143//21 151//21 152//21 144//21
f 141//22 149//22 150//22 142//22
f 150//23 158//23 159//23 151//23
f 148//24 156//24 157//24 149//24
f 153//25 161//25 162//25 154//25
f 151//26 159//26 160//26 152//26
f 149//27 157//27 158//27 150//27
f 147//28 155//28 156//28 148//28
f 154//29 162//29 155//29 147//29
f 152//30 160//30 161//30 153//30
f 162//1 163//1 155//1
f 160//1 163//1 161//1
f 158//1 163//1 159//1
f 156//1 163//1 157//1
f 161//1 163//1 162//1
f 159//1 163//1 160//1
f 157//1 163//1 158//1
f 155//1 163//1 156//1
f 140//31 169//31 170//31 139//31
f 139//32 170//32 171//32 146//32
f 145//33 164//33 165//33 144//33
f 143//34 166//34 167//34 142//34
f 141//35 168//35 169//35 140//35
f 146//36 171//36 164//36 145//36
f 144//37 165//37 166//37 143//37
f 142//38 167//38 168//38 141//38
f 172//15 180//15 181//15 173//15
f 179//16 187//16 180//16 172//16
f 177//17 185//17 186//17 178//17
f 175//18 183//18 184//18 176//18
f 173//19 181//19 182//19 174//19
f 178//20 186//20 187//20 179//20
f 176//21 184//21 185//21 177//21
f 174//22 182//22 183//22 175//22
f 183//23 191//23 192//23 184//23
f 181//24 189//24 190//24 182//24
f 186//25 194//25 195//25 187//25
f 184//26 192//26 193//26 185//26
f 182//27 190//27 191//27 183//27
f 180//28 188//28 189//28 181//28
f 187//29 195//29 188//29 180//29
f 185//30 193//30 194//30 186//30
f 195//1 196//1 188//1
f 193//1 196//1 194//1
f 191//1 196//1 192//1
f 189//1 196//1 190//1
f 194//1 196//1 195//1
f 192//1 196//1 193//1
f 190//1 196//1 191//1
f 188//1 196//1 189//1
f 173//31 202//31 203//31 172//31
f 172//32 203//32 204//32 179//32
f 178//33 197//33 198//33 177//33
f 176//34 199//34 200//34 175//34
f 174//35 201//35 202//35 173//35
f 179//36 204//36 197//36 178//36
f 177//37 198//37 199//37 176//37
f 175//38 200//38 201//38 174//38
f 205//15 213//15 214//15 206//15
f 212//16 220//16 213//16 205//16
f 210//17 218//17 219//17 211//17
f 208//18 216//18 217//18 209//18
f 206//19 214//19 215//19 207//19
f 211//20 219//20 220//20 212//20
f 209//21 217//21 218//21 210//21
f 207//22 215//22 216//22 208//22
f 216//23 224//23 225//23 217//23
f 214//24 222//24 223//24 215//24
f 219//25 227//25 228//25 220//25
f 217//26 225//26 226//26 218//26
f 215//27 223//27 224//27 216//27
f 213//28 221//28 222//28 214//28
f 220//29 228//29 221//29 213//29
f 218//30 226//30 227//30 219//30
f 228//1 229//1 221//1
f 226//1 229//1 227//1
f 224//1 229//1 225//1
f 222//1 229//1 223//1
f 227//1 229//1 228//1
f 225//1 229//1 226//1
f 223//1 229//1 224//1
f 221//1 229//1 222//1
f 206//31 235//31 236//31 205//31
f 205//32 236//32 237//32 212//32
f 211//33 230//33 231//33 210//33
f 209//34 232//34 233//34 208//34
f 207//35 234//35 235//35 206//35
f 212//36 237//36 230//36 211//36
f 210//37 231//37 232//37 209//37
f 208//38 233//38 234//38 207//38
f 238//15 246//15 247//15 239//15
f 245//16 253//16 246//16 238//16
f 243//17 251//17 252//17 244//17
f 241//18 249//18 250//18 242//18
f 239//19 247//19 248//19 240//19
f 244//20 252//20 253//20 245//20
f 242//21 250//21 251//21 243//21
f 240//22 248//22 249//22 241//22
f 249//23 257//23 258//23 250//23
f 247//24 255//24 256//24 248//24
f 252//25 260//25 261//25 253//25
f 250//26 258//26 259//26 251//26
f 248//27 256//27 257//27 249//27
f 246//28 254//28 255//28 247//28
f 253//29 261//29 254//29 246//29
f 251//30 259//30 260//30 252//30
f 261//1 262//1 254//1
f 259//1 262//1 260//1
f 257//1 262//1 258//1
f 255//1 262//1 256//1
f 260//1 262//1 261//1
f 258//1 262//1 259//1
f 256//1 262//1 257//1
f 254//1 262//1 255//1
f 239//31 268//31 269//31 238//31
f 238//32 269//32 270//32 245//32
f 244//33 263//33 264//33 243//33
f 242//34 265//34 266//34 241//34
f 240//35 267//35 268//35 239//35
f 245//36 270//36 263//36 244//36
f 243//37 264//37 265//37 242//37
f 241//38 266//38 267//38 240//38
f 271//15 279//15 280//15 272//15
f 278//16 286//16 279//16 271//16
f 276//17 284//17 285//17 277//17
f 274//18 282//18 283//18 275//18
f 272//19 280//19 281//19 273//19
f 277//20 285//20 286//20 278//20
f 275//21 283//21 284//21 276//21
f 273//22 281//22 282//22 274//22
f 282//23 290//23 291//23 283//23
f 280//24 288//24 289//24 281//24
f 285//25 293//25 294//25 286//25
f 283//26 291//26 292//26 284//26
f 281//27 289//27 290//27 282//27
f 279//28 287//28 288//28 280//28
f 286//29 294//29 287//29 279//29
f 284//30 292//30 293//30 285//30
f 294//1 295//1 287//1
f 292//1 295//1 293//1
f 290//1 295//1 291//1
f 288//1 295//1 289//1
f 293//1 295//1 294//1
f 291//1 295//1 292//1
f 289//1 295//1 290//1
f 287//1 295//1 288//1
f 272//31 301//31 302//31 271//31
f 271//32 302//32 303//32 278//32
f 277//33 296//33 297//33 276//33
f 275//34 298//34 299//34 274//34
f 273//35 300//35 301//35 272//35
f 278//36 303//36 296//36 277//36
f 276//37 297//37 298//37 275//37
f 274//38 299//38 300//38 273//38
f 304//15 312//15 313//15 305//15
f 311//16 319//16 312//16 304//16
f 309//17 317//17 318//17 310//17
f 307//18 315//18 316//18 308//18
f 305//19 313//19 314//19 306//19
f 310//20 318//20 319//20 311//20
f 308//21 316//21 317//21 309//21
f 306//22 314//22 315//22 307//22
f 315//23 323//23 324//23 316//23
f 313//24 321//24 322//24 314//24
f 318//25 326//25 327//25 319//25
f 316//26 324//26 325//26 317//26
f 314//27 322//27 323//27 315//27
f 312//28 320//28 321//28 313//28
f 319//29 327//29 320//29 312//29
f 317//30 325//30 326//30 318//30
f 327//1 328//1 320//1
f 325//1 328//1 326//1
f 323//1 328//1 324//1
f 321//1 328//1 322//1
f 326//1 328//1 327//1
f 324//1 328//1 325//1
f 322//1 328//1 323//1
f 320//1 328//1 321//1
f 305//31 334//31 335//31 304//31
f 304//32 335//32 336//32 311//32
f 310//33 329//33 330//33 309//33
f 308//34 331//34 332//34 307//34
f 306//35 333//35 334//35 305//35
f 311//36 336//36 329//36 310//36
f 309//37 330//37 331//37 308//37
f 307//38 332//38 333//38 306//38
