# Blender v2.78 (sub 0) OBJ File: '7.blend'
# www.blender.org
mtllib Table_Large_Rectangular_01.mtl
o Table_Large_Rectangular_01_Circle.004
v 5.871727 7.129838 -9.903391
v -5.871727 7.129838 -9.903391
v 5.871727 7.129838 9.895962
v -5.871727 7.129838 9.895962
v 5.706116 7.543402 9.730350
v 5.871727 7.377790 9.895962
v -5.706116 7.543402 9.730350
v -5.871727 7.377790 9.895962
v -5.706116 7.543402 -9.737779
v -5.871727 7.377790 -9.903391
v 5.706116 7.543402 -9.737779
v 5.871727 7.377790 -9.903391
v -5.871727 7.129838 -0.003714
v 5.871727 7.129838 -0.003714
v -5.871727 7.377790 -0.003714
v -5.706116 7.543402 -0.003714
v 5.871727 7.377790 -0.003714
v 5.706116 7.543402 -0.003714
v -4.311074 0.000000 8.064142
v -4.501732 0.000000 8.143115
v -4.580706 0.000000 8.333774
v -4.501732 0.000000 8.524432
v -4.311074 0.000000 8.603405
v -4.120416 0.000000 8.524432
v -4.041442 0.000000 8.333774
v -4.120416 0.000000 8.143115
v -4.311074 7.385418 7.878730
v -4.632838 7.385418 8.012010
v -4.766117 7.385418 8.333774
v -4.632838 7.385418 8.655538
v -4.311074 7.385418 8.788816
v -3.989310 7.385418 8.655538
v -3.856031 7.385418 8.333774
v -3.989310 7.385418 8.012010
v -4.311074 0.000000 8.333774
v 4.311074 0.000000 8.064142
v 4.501732 0.000000 8.143115
v 4.580706 0.000000 8.333774
v 4.501732 0.000000 8.524432
v 4.311074 0.000000 8.603405
v 4.120416 0.000000 8.524432
v 4.041442 0.000000 8.333774
v 4.120416 0.000000 8.143115
v 4.311074 7.385418 7.878730
v 4.632838 7.385418 8.012010
v 4.766117 7.385418 8.333774
v 4.632838 7.385418 8.655538
v 4.311074 7.385418 8.788816
v 3.989310 7.385418 8.655538
v 3.856031 7.385418 8.333774
v 3.989310 7.385418 8.012010
v 4.311074 0.000000 8.333774
v -4.311074 0.000000 -8.064142
v -4.501732 0.000000 -8.143115
v -4.580706 0.000000 -8.333774
v -4.501732 0.000000 -8.524432
v -4.311074 0.000000 -8.603405
v -4.120416 0.000000 -8.524432
v -4.041442 0.000000 -8.333774
v -4.120416 0.000000 -8.143115
v -4.311074 7.385418 -7.878730
v -4.632838 7.385418 -8.012010
v -4.766117 7.385418 -8.333774
v -4.632838 7.385418 -8.655538
v -4.311074 7.385418 -8.788816
v -3.989310 7.385418 -8.655538
v -3.856031 7.385418 -8.333774
v -3.989310 7.385418 -8.012010
v -4.311074 0.000000 -8.333774
v 4.311074 0.000000 -8.064142
v 4.501732 0.000000 -8.143115
v 4.580706 0.000000 -8.333774
v 4.501732 0.000000 -8.524432
v 4.311074 0.000000 -8.603405
v 4.120416 0.000000 -8.524432
v 4.041442 0.000000 -8.333774
v 4.120416 0.000000 -8.143115
v 4.311074 7.385418 -7.878730
v 4.632838 7.385418 -8.012010
v 4.766117 7.385418 -8.333774
v 4.632838 7.385418 -8.655538
v 4.311074 7.385418 -8.788816
v 3.989310 7.385418 -8.655538
v 3.856031 7.385418 -8.333774
v 3.989310 7.385418 -8.012010
v 4.311074 0.000000 -8.333774
vn 0.0000 -1.0000 0.0000
vn 1.0000 0.0000 0.0000
vn 0.0000 1.0000 0.0000
vn 0.0000 0.0000 -1.0000
vn -1.0000 0.0000 0.0000
vn 0.0000 0.7071 0.7071
vn -0.7071 0.7071 0.0000
vn 0.7071 0.7071 0.0000
vn 0.0000 0.7071 -0.7071
vn 0.0000 0.0000 1.0000
vn -0.9236 -0.0232 0.3826
vn -0.3826 -0.0232 -0.9236
vn 0.3826 -0.0232 -0.9236
vn 0.9236 -0.0232 0.3826
vn -0.3826 -0.0232 0.9236
vn -0.9236 -0.0232 -0.3826
vn 0.9236 -0.0232 -0.3826
vn 0.3826 -0.0232 0.9236
usemtl 795548
s off
f 13//1 2//1 1//1 14//1
f 14//2 1//2 12//2 17//2
f 16//3 18//3 11//3 9//3
f 1//4 2//4 10//4 12//4
f 13//5 4//5 8//5 15//5
f 8//6 6//6 5//6 7//6
f 15//7 8//7 7//7 16//7
f 17//8 12//8 11//8 18//8
f 12//9 10//9 9//9 11//9
f 4//10 3//10 6//10 8//10
f 6//8 17//8 18//8 5//8
f 10//7 15//7 16//7 9//7
f 2//5 13//5 15//5 10//5
f 7//3 5//3 18//3 16//3
f 3//2 14//2 17//2 6//2
f 4//1 13//1 14//1 3//1
f 21//11 22//11 30//11 29//11
f 19//12 20//12 28//12 27//12
f 26//13 19//13 27//13 34//13
f 24//14 25//14 33//14 32//14
f 22//15 23//15 31//15 30//15
f 20//16 21//16 29//16 28//16
f 25//17 26//17 34//17 33//17
f 23//18 24//18 32//18 31//18
f 22//1 21//1 35//1
f 20//1 19//1 35//1
f 19//1 26//1 35//1
f 25//1 24//1 35//1
f 23//1 22//1 35//1
f 21//1 20//1 35//1
f 26//1 25//1 35//1
f 24//1 23//1 35//1
f 38//14 46//14 47//14 39//14
f 36//13 44//13 45//13 37//13
f 43//12 51//12 44//12 36//12
f 41//11 49//11 50//11 42//11
f 39//18 47//18 48//18 40//18
f 37//17 45//17 46//17 38//17
f 42//16 50//16 51//16 43//16
f 40//15 48//15 49//15 41//15
f 39//1 52//1 38//1
f 37//1 52//1 36//1
f 36//1 52//1 43//1
f 42//1 52//1 41//1
f 40//1 52//1 39//1
f 38//1 52//1 37//1
f 43//1 52//1 42//1
f 41//1 52//1 40//1
f 55//16 63//16 64//16 56//16
f 53//15 61//15 62//15 54//15
f 60//18 68//18 61//18 53//18
f 58//17 66//17 67//17 59//17
f 56//12 64//12 65//12 57//12
f 54//11 62//11 63//11 55//11
f 59//14 67//14 68//14 60//14
f 57//13 65//13 66//13 58//13
f 56//1 69//1 55//1
f 54//1 69//1 53//1
f 53//1 69//1 60//1
f 59//1 69//1 58//1
f 57//1 69//1 56//1
f 55//1 69//1 54//1
f 60//1 69//1 59//1
f 58//1 69//1 57//1
f 72//17 73//17 81//17 80//17
f 70//18 71//18 79//18 78//18
f 77//15 70//15 78//15 85//15
f 75//16 76//16 84//16 83//16
f 73//13 74//13 82//13 81//13
f 71//14 72//14 80//14 79//14
f 76//11 77//11 85//11 84//11
f 74//12 75//12 83//12 82//12
f 73//1 72//1 86//1
f 71//1 70//1 86//1
f 70//1 77//1 86//1
f 76//1 75//1 86//1
f 74//1 73//1 86//1
f 72//1 71//1 86//1
f 77//1 76//1 86//1
f 75//1 74//1 86//1
